<svg xmlns="http://www.w3.org/2000/svg" xml:space="preserve" version="1.1" style="shape-rendering:geometricPrecision; text-rendering:geometricPrecision; image-rendering:optimizeQuality; fill-rule:evenodd; clip-rule:evenodd" xmlns:xlink="http://www.w3.org/1999/xlink" xmlns:xodm="http://www.corel.com/coreldraw/odm/2003" viewBox="2728.73 5072.95 16403.7 10839.93">
 <defs>
  <style type="text/css">
   <![CDATA[
    .fil0 {fill:#EED49F}
   ]]>
  </style>
 </defs>
 <g id="Слой_x0020_1">
  <metadata id="CorelCorpID_0Corel-Layer"/>
  <g>
   <path class="fil0" d="M13300.81 13988.32c180.89,-97.46 -46.45,-766.59 -135.19,-1171.92 -66.5,-303.75 -136.33,-584.07 -163.44,-760.43 -30.9,-201.04 -306.36,-632.42 -375.34,-634.86 -126.73,-4.49 -94.97,562.3 -372.13,473.56 -96.05,-30.75 -186.91,-115.04 -127.76,-281.22 38.89,-109.28 41.93,-305.73 127.86,-420.98 -52.54,50.11 -77.84,66.78 -128.4,94.93 -280.38,156.07 -628.62,123.1 -897.41,-25.72l-405.26 -235c-149.02,-88.23 -374.61,-196.38 -536.01,-268.41 -36.6,-16.34 -76.36,-27.08 -111.89,-46.12 -128.97,-69.1 -449.28,-169.31 -591.28,-214.57 -353.64,-112.7 -714.61,-182.76 -1088.19,-205.37 -364.89,-22.09 -537.19,-34.62 -895.65,26.03 -320.17,61.87 -872.57,259.2 -1179.2,426.95 -164.42,89.95 -661.06,344.43 -825.65,456.37 -139.02,94.54 -257.85,157.03 -394.16,245.59 -202.29,131.41 -392.9,260.12 -593.03,368.33 -61.77,33.4 -144.43,92.32 -244.1,84.74 -129.8,-154.67 175.22,-645.94 246.03,-778.72 109.72,-205.73 236.93,-401.92 373.25,-592.3 36.87,-51.49 68.16,-101.26 106.83,-150.36 118.7,-150.72 200.22,-286.23 339.14,-432.61l728.15 -827.44c155.28,-174.22 524.53,-633.68 625.04,-794.82 152.45,-244.4 301.27,-460.88 394.21,-768.3 61.42,-203.17 131.76,-393.83 157.94,-610.07 86.07,-711.1 6.78,-1216.97 -698.36,-1578.38 -62.94,-32.26 -101.56,-56.02 -177.43,-80.42l-192.45 -66.8c-130.23,-40.26 -278.22,-56.33 -424.52,-92.46 -137.93,-34.06 -829.24,-75.53 -990.96,-42.46 -392.67,80.31 -437.19,91.6 -754.93,276.7 -107.67,62.72 -266.53,204.02 -341.38,298.05 -25.98,32.63 -34.92,37.98 -60.96,72.48 -198.72,263.23 -337.14,518.44 -469.17,826.79 -66.79,155.98 -204.52,422.43 -146.73,593.74 16.54,49.05 76.13,116.22 130.72,135.46 169.69,59.79 336.05,-65.32 429.48,-190.78 19.62,-26.35 34.32,-56.2 49.93,-84.55 191.86,-348.39 235.53,-586.17 473.24,-943.66 134.81,-202.74 257.17,-317.28 510.89,-398.42 140.92,-45.07 304.54,-59.93 472.4,-48.6 366.6,24.74 683.6,146.27 990.81,316.13 99.56,55.05 142.03,90.47 226.7,156.17 28.51,22.12 47.92,36.9 73.34,60.69 49.84,46.63 75.13,92.26 111.04,147.28 74.08,113.52 99.86,247.1 96.35,424.58 -6.98,352.83 -132.13,516.78 -297.68,728.42 -226.5,289.57 -505.39,529.66 -767.03,788.64 -92.36,91.41 -170.35,171.62 -259.85,255.61 -160.63,150.75 -285.97,306.03 -446.46,460.22 -25.8,24.79 -34.84,45.17 -60.89,73.11 -167.72,179.9 -317.13,373.12 -460.72,569.54 -146.56,200.47 -260.87,444.81 -379.67,657.08 -208.74,372.97 -529.35,992.62 -704.55,1361.22 -563.18,1184.86 -646.92,1410.83 -421.6,2638.75 29.85,101.65 46.44,201.76 83.2,296.76 13.79,35.62 9.65,29.76 20.28,68.46 48.09,175.02 222.87,595.77 290.76,737.98 21.01,44.01 36.69,91.7 59.81,137.31l129.04 238.82c65.21,101.78 52.44,150.56 99.29,173.8 5117.42,0 10213.14,-22.03 15331.32,0 334.74,-55.78 467.75,-741.19 -221.32,-994.68 -249.51,-91.79 -834.05,-185.67 -1108.98,-197.15 -70.59,-2.94 -127.57,-15.71 -197,-18.75 -186.71,-8.17 -220.14,25.49 -211.03,-66.67 2.88,-29.14 3.39,-50.22 3.27,-80.06 -0.22,-49.43 2.26,-102.4 -2.25,-151.26 -24.65,-267.56 -83.62,-647.89 -238.47,-859.61 -117.12,-160.13 -229.76,-273.34 -384.61,-397.35 -60.36,-48.34 -115.33,-78.87 -185.36,-133.06 -4.33,-30.59 -12.39,-182.45 -11.34,-204.77 114.5,-44.99 211.34,-73.9 320.88,-113.07 202,-72.21 419.87,-156.27 615.54,-252.29 277.68,-136.25 553.61,-324.09 684.16,-614.47 102.88,-228.85 16.82,-455.67 -117.8,-647.67 -95.61,-136.36 -113.63,-114.22 -140.13,-292.65 -16.9,-113.8 -45.86,-243.18 -79.5,-348.77 -17.36,-54.48 -32.78,-115.24 -45.81,-168.16 -36.27,-147.27 -113.59,-328.37 -178.65,-467.74 -70.66,-151.38 -250.01,-361.78 -380.32,-485.29l-333.73 -316.53c-38.23,-34.53 -90.75,-79.42 -117.02,-109.91 -9.61,-22.59 32.09,-525.74 34.99,-602.17 8.08,-213.08 34.47,-694.23 -63.26,-891.23 -44.3,-89.28 -119.44,-101.67 -226.55,-63.23 -218.21,78.33 -398.62,251.73 -576.65,384.23 -61.38,45.68 -107.29,101.54 -166.14,152.69 -129.86,112.88 -235.18,188.29 -369.95,270.1l-632.02 329.35c-56.76,26.99 -150.42,80.07 -214.39,116.03l-201.25 118.74c-32.04,20.02 -62.49,37.72 -95.8,59.41l-59.32 42.97c-340.67,225.83 -606.3,503.64 -799.83,859.12l-170.06 304.24c-63.72,96.46 -117.72,210.37 -169.17,311.4 -104.94,206.04 -236.59,399.15 -368.84,589.49 -40.34,58.06 -42.78,69.81 -107.74,131.78 360.64,-173.53 354.79,49.78 573.11,40.92 173.78,-7.05 143.13,-248.97 311.95,-260.55 138.91,-9.53 613.37,151.2 777.66,323.82 279.76,293.97 417.62,465.29 317.35,517.97 -113.31,59.54 -729.06,-544.57 -943.32,-477.69 -84.23,26.29 -35.14,407.52 -30.47,662.45 7.61,414.89 278.67,1234.61 499.97,1531.81 49.46,-19.32 134.89,-43.69 248.85,-43.91 331.85,-0.66 1164.44,650.51 1283.24,105.52 47.98,-220.09 -1213,-562.07 -1443.78,-799.26 -144.39,-148.41 -360.04,-426.08 -236.85,-729.05 84.08,-206.82 887.35,-249.79 1067.19,-83.36 105.42,97.56 710.53,595.49 340.13,454.64 -709.76,-269.89 -919.44,-509.27 -1057.5,-272.2 -58.43,100.32 -124.77,235.25 -46.39,334.43 291.13,368.41 1077.71,60.13 1387.62,549.03 147.05,231.98 227.43,-174.37 799.52,-649.83 -550.24,726.11 -715.8,793.82 -678.83,822.41 9.46,7.31 12.83,19.34 18.32,27.74 5.05,7.74 764.44,-360.76 770.59,-351.26 8.38,12.95 -717.98,431.93 -711.44,442.25 70.18,110.82 126.72,212.64 126.72,254.67 0,74.73 -26.06,144.56 -78.57,210.49 -52.51,65.91 -74.33,108.48 -225.69,153.71 -115.07,34.38 -325.52,-26.54 -495.33,129.65 -234.73,215.9 -259.64,421.52 -675.17,788.65 -15.44,13.64 577.36,-854.48 554.95,-858.11 -40.92,-6.62 -97.13,-61.68 -130.51,-25.2 -29.74,32.52 -61.11,148.55 -622.65,546.52 -73.04,51.76 477.85,-527.53 487.1,-579.55 11.13,-62.54 -438.62,-153.77 -530.76,-177.5 235.04,315.66 -25.44,172.93 -292.71,129.91 -145.34,-23.4 178.39,432.85 193.27,450.02 28.57,32.93 -119.8,100.24 -279.31,61.82 -204.54,-49.26 41.9,156.47 -335.97,144.65 -215.7,-6.74 -504.16,-118.57 -795.24,-156.17 -396.05,-51.17 -488.03,-207.44 -488.66,-311.59 -1.51,-250 326.87,-814.1 86.49,-764.64 -240.38,49.45 -1161.95,207.76 -1257.16,352.55 -195.21,296.84 -37.5,553.85 -585.7,890.53 -58.96,36.21 -164.54,-7.41 -253.44,-5.16l3309.25 -498.68zm-3086.95 -676.6c84.24,350.11 360.09,-414.52 917.11,-452.97 522.49,-36.07 1025.37,183.58 994,115.06 -360.7,-787.64 -1133.36,-1323.72 -1278.71,-1212.84 -119.91,91.48 -716.64,1200.64 -632.4,1550.75zm-222.3 1175.28c-252.34,30.71 -1071.27,217.52 -1125.22,14.49l-203.61 -766.12c-72.98,-274.64 -394.29,-626.88 -497.82,-626.88 -103.53,0 -509.71,-143.79 -573.04,0l-539.29 1224.34c-102.52,26.11 205.62,354.6 -814.48,372.24 -498.83,8.62 -1370.25,-129.01 -1519.31,12.78 -357.46,340 83.58,665.14 884.6,765.02 627.45,78.26 1524.94,15.97 2116.86,-28.9 547.59,-41.51 788.06,-75.49 1243.94,-78.87 225.49,-1.68 911.56,12.69 1319.11,107.82 440.74,102.87 596.22,288.44 612.13,324 -33.16,25.46 -288.19,-188.09 -748.13,-260.42 -512.6,-80.64 -1249.78,-21.36 -1598.22,5.93 -809.85,63.41 -1811.35,237.21 -2375.52,216.77 -372,-13.47 -758.75,-10.83 -1061.09,-66.82 -318.17,-58.94 -545.94,-177.97 -689.78,-246.94 -141.54,-67.88 -218.54,-183.34 -263.85,-268.22 -90.36,-169.19 -41.3,-311.66 -35.92,-373.93 22.21,-256.56 479.95,-485.82 709.96,-521.44 391.94,-60.71 1663.03,204.85 1800.98,-78.13 96.41,-1099.19 -38.45,-942.45 -9.57,-1539.68 60.12,-1243.18 452.59,-1151.3 1275.15,-1388.42 991.47,-285.81 1580.17,-67.28 1758.79,-23.98 812.18,196.86 410.23,610.68 410.23,788.25 0,216.23 -86.21,398.46 -257.78,546.61 -474.42,409.69 -1303.37,91.77 -682.02,943.21 113.03,154.89 324.32,318.71 531.76,510.08 -42.12,-598.84 64.95,-532.2 215.18,-988.69l499.56 -1517.93c441.4,-1341.18 2727.28,2193.27 2925.65,2445.15l-3309.25 498.68zm-2655.23 -1945.36c41.85,219.78 1704.39,2.79 1831.63,-35.17 127.01,-37.88 223.83,-98.54 289.14,-182.93 66.19,-83.66 99.28,-174.39 99.28,-272.93 0,-143.92 -63.6,-263.03 -191.6,-355.93 -128,-92.86 -330.94,-158.16 -606.11,-138.94 -1290.74,90.19 -1581.53,149.94 -1422.34,985.9z"/>
  </g>
 </g>
</svg>