<svg xmlns="http://www.w3.org/2000/svg" xml:space="preserve" version="1.1" style="shape-rendering:geometricPrecision; text-rendering:geometricPrecision; image-rendering:optimizeQuality; fill-rule:evenodd; clip-rule:evenodd" xmlns:xlink="http://www.w3.org/1999/xlink" xmlns:xodm="http://www.corel.com/coreldraw/odm/2003" viewBox="4346.95 4385.92 11032.55 13064.83">
 <defs>
  <style type="text/css">
   <![CDATA[
    .fil0 {fill:#B5EBBD}
   ]]>
  </style>
 </defs>
 <g id="Слой_x0020_1">
  <metadata id="CorelCorpID_0Corel-Layer"/>
  <path class="fil0" d="M12380.88 6073.53c118.31,20.18 1058.22,33.28 1588.04,105.87 507.02,69.46 950.41,183.05 1410.57,300.32 -1.7,880.49 -1154.22,1474.39 -1853.29,1798.23 -568.71,263.45 -599.65,89.01 -1031.5,1173.5 1511.56,-254.68 1446.65,963.31 849.55,843.23 -140.79,-188.53 -137.43,-595.95 -564.81,-477.01 -235.49,65.54 -481.69,342.74 -571.65,517.24 606.04,-46 1683.37,-140.75 1683.16,782.67 -0.03,120.08 -23.9,253.24 -60.76,355.56 -59.38,164.87 -70.09,124.72 -164.03,243.11 -223.21,8.46 -346.8,-83.62 -433.77,-216.33 -143.02,-218.24 45.03,-280.82 -33.24,-531.8 -290.67,-105.27 -888.79,83.39 -1201.1,160.25 -22.26,349.07 77.97,552.55 -29.21,954.43 -96.41,361.45 -255.44,457.32 -436.69,664.77 637.73,-51.24 1585.67,-241.06 1659.98,495.95l-1402.12 34.93c580.17,40.53 1169.89,240.94 1253.03,763.24 -333.44,62.28 -927.98,43.53 -1294.02,56.87 -1721.59,62.74 -1834.58,27.63 -3670.76,407.81 -341.5,70.71 -842.83,62.35 -1229.26,112.85 -387.06,50.58 -793.39,99.33 -1113.46,260.35 -275.19,138.45 -612.07,464.12 -395.51,880.75 410.76,790.21 2392,886.58 3195.66,886.19 859.34,-0.43 1498.89,-225.95 2112.72,-593.38 531.59,-318.21 1133.41,-712.13 1754.72,-961.88 593.97,-238.77 1754.36,-473.61 2124.46,85.8 -1533.26,-94.86 -2504.93,858.75 -3321.46,1469.01 -1077.58,805.36 -2376.09,888.67 -3975.49,750.22 -1069.62,-92.58 -2973.86,-480.7 -2880.36,-1894.39 43.8,-662.38 608.93,-1083.8 1087.4,-1310.29 327.23,-154.9 1537.29,-504.36 1935.41,-485.61 -159.56,-872.72 -395.72,-1242.26 -190.65,-2420.86 306.94,-1764.16 1556.61,-2955.26 3009.12,-3802.34 576.13,-336 348.35,-114.13 619.75,-751.85 -255.6,-277.44 -747.69,-540.79 -836.61,-968.26 -198.97,-956.48 1138.63,-1888.43 1898.19,-1050.99 442.19,487.53 292.05,764.92 507.99,1361.84z"/>
 </g>
</svg>